# xmcd
#
# Track frame offsets:
#	150
#	11785
#	35678
#	50564
#	82849
#	96867
#	110681
#	122099
#	133948
#	145754
#	154451
#	168520
#	189883
#	205239
#	217985
#	228815
#	242010
#	258086
#	271997
#	285057
#	297095
#	305273
#	315818
#	329809
#
# Disc length: 4450 seconds
#
# Revision: 1
# Processed by: cddbd v1.5.2PL0 Copyright (c) Steve Scherf et al.
# Submitted via: audiograbber 1.83.01
#
DISCID=50116018
DTITLE=Various Artist - 40!!! Years Bear Familiy Records CD2
DYEAR=2015
DGENRE=Country
TTITLE0=ry cooder - bear familiy song
TTITLE1=tom house - i will bare my all
TTITLE2=chip taylor - she barely said hello
TTITLE3=mark brine - the miss-adventures of pete'n stinky #1
TTITLE4=ray campi - bareback ridin' cowboy
TTITLE5=dick damron - the famous bear
TTITLE6=hank davis - the bear song
TTITLE7=narvel felts - loaded for bear
TTITLE8=mona mc call - i love charlie brown (i love lucy brown)
TTITLE9=yana hoffman and hank davis - look up my cage
TTITLE10=the stardust ramblers - barely any memory
TTITLE11=tha dan montgomery 3 - more than i could bear
TTITLE12=my darling clementine - yours is the cross that i still bear
TTITLE13=tracey k houston with carl mann and rayburn anthony - smokey bear
TTITLE14=deke dickerson - i've got to have it all (bear family gospel quartet)
TTITLE15=john howie jr. and the rosewood bluff - i can't bear to see you go
TTITLE16=trailerpark idlers - beer, bourbon and the song of bobby bare
TTITLE17=the shambles - wouldn't you like to be a bear?
TTITLE18=chip taylor - totally bare (all dressed up in nothing)
TTITLE19=tracey k houston - barely hangin' on
TTITLE20=cry - don't let 'em grin you down
TTITLE21=jittery jack - bare my heart
TTITLE22=jono manson - the unbearable longness of boring
TTITLE23=frankie miller - frankie's bear song
EXTD=
EXTT0=
EXTT1=
EXTT2=
EXTT3=
EXTT4=
EXTT5=
EXTT6=
EXTT7=
EXTT8=
EXTT9=
EXTT10=
EXTT11=
EXTT12=
EXTT13=
EXTT14=
EXTT15=
EXTT16=
EXTT17=
EXTT18=
EXTT19=
EXTT20=
EXTT21=
EXTT22=
EXTT23=
PLAYORDER=
